<svg width="50" height="50" viewBox="0 0 50 50" fill="none" xmlns="http://www.w3.org/2000/svg">
<g filter="url(#filter0_d_1_174)">
<rect x="4.5" y="0.5" width="41" height="41" rx="5.5" stroke="#E86E84" stroke-linejoin="round" shape-rendering="crispEdges"/>
<path fill-rule="evenodd" clip-rule="evenodd" d="M25 13C25.5523 13 26 13.4477 26 14V28C26 28.5523 25.5523 29 25 29C24.4477 29 24 28.5523 24 28V14C24 13.4477 24.4477 13 25 13Z" fill="#E86E84"/>
<path fill-rule="evenodd" clip-rule="evenodd" d="M17 21C17 20.4477 17.4477 20 18 20H32C32.5523 20 33 20.4477 33 21C33 21.5523 32.5523 22 32 22H18C17.4477 22 17 21.5523 17 21Z" fill="#E86E84"/>
</g>
<defs>
<filter id="filter0_d_1_174" x="0" y="0" width="50" height="50" filterUnits="userSpaceOnUse" color-interpolation-filters="sRGB">
<feFlood flood-opacity="0" result="BackgroundImageFix"/>
<feColorMatrix in="SourceAlpha" type="matrix" values="0 0 0 0 0 0 0 0 0 0 0 0 0 0 0 0 0 0 127 0" result="hardAlpha"/>
<feOffset dy="4"/>
<feGaussianBlur stdDeviation="2"/>
<feComposite in2="hardAlpha" operator="out"/>
<feColorMatrix type="matrix" values="0 0 0 0 0 0 0 0 0 0 0 0 0 0 0 0 0 0 0.25 0"/>
<feBlend mode="normal" in2="BackgroundImageFix" result="effect1_dropShadow_1_174"/>
<feBlend mode="normal" in="SourceGraphic" in2="effect1_dropShadow_1_174" result="shape"/>
</filter>
</defs>
</svg>
